<svg xmlns="http://www.w3.org/2000/svg" viewBox="0 0 197.83 40"><defs><style>.a{fill:#fff;}</style></defs><title>ruuvi-logo</title><path class="a" d="M134.44,29.56a4.8,4.8,0,0,1-3-1.46,4.22,4.22,0,0,1-.93-1.89c-.14-.7-.11-1-.11-8.6,0-9.1,0-8.27.5-9.59a4.53,4.53,0,0,1,1.74-1.77A5.72,5.72,0,0,1,136,5.72a3.85,3.85,0,0,1,3.89,3.82h0v8.54c0,7.53,0,7.2-.18,8.11A4.29,4.29,0,0,1,137.46,29a6.2,6.2,0,0,1-3.07.46h0Zm-63.29.14a15.27,15.27,0,0,1-11.31-5.37,15.85,15.85,0,0,1-4-8.24c-.27-1.6-.29-2.73-.27-12.71,0-10.7-.1-9.59.54-11a4.32,4.32,0,0,1,2.8-2.22,7,7,0,0,1,2.81,0,4.51,4.51,0,0,1,3.2,3.29C65-6.15,65-5.2,65,4V14.14a6.19,6.19,0,0,0,2.86,4.8,7.29,7.29,0,0,0,11.37-5.23V3.53c0-10.6,0-10,.45-11a4.53,4.53,0,0,1,3-2.41,7.76,7.76,0,0,1,2.69,0A3.45,3.45,0,0,1,87-8.82,3.07,3.07,0,0,1,88-6.42V4.12c0,11.79.4,11.19-.13,13.29a16.09,16.09,0,0,1-5.09,8.44A17,17,0,0,1,71.15,29.7Zm-76-.14a4.8,4.8,0,0,1-3-1.46,5.61,5.61,0,0,1-.93-1.89c-.11-.77-.11-1.12-.11-10.81,0-8.09,0-10.49.1-11a15.88,15.88,0,0,1,4.4-9.29A16.12,16.12,0,0,1,7.07-10a5.93,5.93,0,0,1,2.57.29,4.61,4.61,0,0,1,2.54,2.51A5.72,5.72,0,0,1,12.52-5,4.09,4.09,0,0,1,9.79-1,8.43,8.43,0,0,1,7.61-.5a8.19,8.19,0,0,0-3.2.91,7,7,0,0,0-3.1,3A9.37,9.37,0,0,0,.77,5V15.58c0,9.13,0,9.83-.19,10.76A4.24,4.24,0,0,1-1.68,29.1,6.19,6.19,0,0,1-4.89,29.56Zm110.34-2.85c-.35-.66-12.12-30.59-12.28-31.15a3.76,3.76,0,0,1,0-2.33A5,5,0,0,1,96.8-10a5.52,5.52,0,0,1,3.42.34,4.8,4.8,0,0,1,1.6,1.6c.3.53.27.42,4.61,11.43,1.68,4.27,3.07,7.74,3.1,7.71s1.68-4.22,3.69-9.32c2.57-6.54,3.74-9.43,4-9.8a4.17,4.17,0,0,1,2.67-2,6.54,6.54,0,0,1,2.8.14,5,5,0,0,1,2.08,1.33,3.81,3.81,0,0,1,1.12,1.87,3.74,3.74,0,0,1,0,2.19c-.13.56-11.83,30.38-12.28,31.21a4.35,4.35,0,0,1-8.14,0h0Z" transform="translate(8.92 10.27)"/><path class="a" d="M33.12,29.7a15.24,15.24,0,0,1-11.35-5.32,15.78,15.78,0,0,1-4.06-8.24c-.27-1.6-.29-2.73-.27-12.7,0-10.7-.1-9.59.54-11A4.32,4.32,0,0,1,20.9-9.76a7,7,0,0,1,2.81,0,4.51,4.51,0,0,1,3.2,3.29c.11.38.11,1.33.14,10.55V14.21A6.19,6.19,0,0,0,29.92,19a7.5,7.5,0,0,0,8,.13,7.21,7.21,0,0,0,3.31-5.42V3.53c0-10.6,0-10,.45-11a4.53,4.53,0,0,1,3-2.33,7.76,7.76,0,0,1,2.78,0,5.5,5.5,0,0,1,2.21,1.15,4.27,4.27,0,0,1,1.6,2.38V4.12c0,11.79-.22,11.19-.77,13.29a16.52,16.52,0,0,1-5.39,8.41A17.59,17.59,0,0,1,33.18,29.7h-.06Z" transform="translate(8.92 10.27)"/><circle class="a" cx="143.98" cy="5.98" r="5.98"/><path class="a" d="M169.62-9.57a19.19,19.19,0,1,0,.21,0Zm4,32a12.3,12.3,0,0,1-12.3-12.17A8.51,8.51,0,0,0,171.46-2a12.3,12.3,0,1,1,2.16,24.34h0Z" transform="translate(8.92 10.27)"/></svg>